<svg width="48" height="48" viewBox="0 0 48 48" fill="none" xmlns="http://www.w3.org/2000/svg">
<path fill-rule="evenodd" clip-rule="evenodd" d="M26 8C26 7.46957 25.7893 6.96086 25.4142 6.58579C25.0391 6.21071 24.5304 6 24 6C23.4696 6 22.9609 6.21071 22.5858 6.58579C22.2107 6.96086 22 7.46957 22 8V10C19.8783 10 17.8434 10.8429 16.3431 12.3431C14.8429 13.8434 14 15.8783 14 18C14 20.1217 14.8429 22.1566 16.3431 23.6569C17.8434 25.1571 19.8783 26 22 26V34C21.1727 34.0001 20.3656 33.7438 19.69 33.2664C19.0143 32.789 18.5032 32.1139 18.227 31.334C18.0434 30.8431 17.6745 30.4438 17.1996 30.2222C16.7247 30.0005 16.1817 29.9741 15.6876 30.1486C15.1934 30.3232 14.7874 30.6847 14.5571 31.1555C14.3268 31.6263 14.2905 32.1687 14.456 32.666C15.0078 34.2259 16.0295 35.5764 17.3805 36.5316C18.7315 37.4868 20.3454 37.9998 22 38V40C22 40.5304 22.2107 41.0391 22.5858 41.4142C22.9609 41.7893 23.4696 42 24 42C24.5304 42 25.0391 41.7893 25.4142 41.4142C25.7893 41.0391 26 40.5304 26 40V38C28.1217 38 30.1566 37.1571 31.6569 35.6569C33.1571 34.1566 34 32.1217 34 30C34 27.8783 33.1571 25.8434 31.6569 24.3431C30.1566 22.8429 28.1217 22 26 22V14C26.8273 13.9999 27.6344 14.2562 28.31 14.7336C28.9857 15.211 29.4968 15.8861 29.773 16.666C29.9566 17.1569 30.3255 17.5562 30.8004 17.7778C31.2753 17.9995 31.8183 18.0259 32.3124 17.8514C32.8066 17.6768 33.2126 17.3153 33.4429 16.8445C33.6732 16.3737 33.7095 15.8313 33.544 15.334C32.9922 13.7741 31.9705 12.4236 30.6195 11.4684C29.2685 10.5132 27.6546 10.0002 26 10V8ZM22 14C20.9391 14 19.9217 14.4214 19.1716 15.1716C18.4214 15.9217 18 16.9391 18 18C18 19.0609 18.4214 20.0783 19.1716 20.8284C19.9217 21.5786 20.9391 22 22 22V14ZM26 26V34C27.0609 34 28.0783 33.5786 28.8284 32.8284C29.5786 32.0783 30 31.0609 30 30C30 28.9391 29.5786 27.9217 28.8284 27.1716C28.0783 26.4214 27.0609 26 26 26Z" fill="#001A49"/>
</svg>
