<svg width="19" height="23" viewBox="0 0 19 23" fill="none" xmlns="http://www.w3.org/2000/svg">
<path d="M17.3769 19.8065C17.6608 19.807 17.9339 19.9152 18.1411 20.1092C18.3484 20.3032 18.4743 20.5686 18.4935 20.8518C18.5126 21.1351 18.4236 21.4151 18.2444 21.6352C18.0652 21.8554 17.8091 21.9993 17.5278 22.038L17.3769 22.0485H1.69062C1.4066 22.0484 1.1332 21.9405 0.925671 21.7466C0.718139 21.5527 0.591944 21.2873 0.572586 21.0039C0.553227 20.7206 0.642148 20.4404 0.821381 20.2201C1.00061 19.9998 1.2568 19.8557 1.53816 19.817L1.69062 19.8065H17.3769ZM9.54346 0.487597C9.81434 0.487608 10.0761 0.585709 10.2802 0.763757C10.4844 0.941805 10.6171 1.18776 10.654 1.45612L10.6644 1.60858L10.6629 14.4931L15.096 10.054C15.2857 9.86354 15.5376 9.74759 15.8056 9.72729C16.0737 9.70699 16.3401 9.78368 16.5563 9.9434L16.6819 10.051C16.8721 10.2409 16.9878 10.4928 17.0078 10.7609C17.0278 11.0289 16.9509 11.2952 16.791 11.5113L16.6834 11.6368L10.3416 17.989L10.237 18.0832L10.0995 18.1714L10.0457 18.2028L9.90965 18.2596L9.73029 18.3044L9.62566 18.3164L9.53598 18.3194C9.46062 18.3192 9.38549 18.3112 9.31179 18.2954L9.18923 18.2611C9.04773 18.2151 8.91705 18.1409 8.80511 18.0429L2.3931 11.6383C2.19201 11.4386 2.07407 11.17 2.06301 10.8868C2.05196 10.6036 2.14861 10.3267 2.33351 10.1118C2.51841 9.89698 2.77784 9.76017 3.05956 9.72892C3.34128 9.69767 3.62438 9.77431 3.85187 9.9434L3.97742 10.0525L8.42098 14.4871V1.60858C8.42098 1.31128 8.53909 1.02615 8.74931 0.815924C8.95954 0.6057 9.24466 0.487597 9.54196 0.487597H9.54346Z" fill="white"/>
</svg>
