<svg width="66" height="44" viewBox="0 0 66 44" fill="none" xmlns="http://www.w3.org/2000/svg">
<path opacity="0.5" d="M43.5033 44C39.0533 44.0006 34.7029 42.711 31.0025 40.2941C27.302 37.8773 24.4176 34.4418 22.714 30.4221C21.0104 26.4023 20.5642 21.9789 21.4317 17.7112C22.2992 13.4435 24.4415 9.52318 27.5877 6.44597C30.734 3.36876 34.7428 1.27288 39.1072 0.423372C43.4716 -0.426137 47.9957 0.00887779 52.1073 1.67341C56.2189 3.33794 59.7333 6.15722 62.2062 9.77474C64.6791 13.3923 65.9993 17.6455 66 21.9967V22C65.9938 27.8323 63.6217 33.4241 59.4042 37.5485C55.1867 41.6729 49.4682 43.9931 43.5033 44Z" fill="white"/>
<path d="M22.5 44C18.0499 44 13.6998 42.7097 9.99968 40.2923C6.29957 37.8749 3.41569 34.439 1.71272 30.419C0.00974889 26.3991 -0.435826 21.9756 0.432341 17.708C1.30051 13.4404 3.44343 9.52041 6.59011 6.44366C9.73679 3.3669 13.7459 1.27161 18.1105 0.422733C22.475 -0.426141 26.999 0.00953283 31.1104 1.67466C35.2217 3.33979 38.7357 6.15958 41.2081 9.77746C43.6804 13.3953 45 17.6488 45 22C44.9938 27.8329 42.6213 33.4252 38.4031 37.5497C34.1848 41.6741 28.4655 43.9939 22.5 44Z" fill="white"/>
</svg>
