<svg width="36" height="41" viewBox="0 0 36 41" fill="none" xmlns="http://www.w3.org/2000/svg">
<path d="M12 2.25C12 1.56 12.56 1 13.25 1H22.75C23.0815 1 23.3995 1.1317 23.6339 1.36612C23.8683 1.60054 24 1.91848 24 2.25C24 2.58152 23.8683 2.89946 23.6339 3.13388C23.3995 3.3683 23.0815 3.5 22.75 3.5H13.25C12.56 3.5 12 2.94 12 2.25ZM16.75 22.75C16.75 23.0815 16.8817 23.3995 17.1161 23.6339C17.3505 23.8683 17.6685 24 18 24C18.3315 24 18.6495 23.8683 18.8839 23.6339C19.1183 23.3995 19.25 23.0815 19.25 22.75V13.25C19.25 12.9185 19.1183 12.6005 18.8839 12.3661C18.6495 12.1317 18.3315 12 18 12C17.6685 12 17.3505 12.1317 17.1161 12.3661C16.8817 12.6005 16.75 12.9185 16.75 13.25V22.75ZM18 6C8.611 6 1 13.611 1 23C1 32.389 8.611 40 18 40C27.389 40 35 32.389 35 23C35 13.611 27.389 6 18 6ZM3.5 23C3.5 14.992 9.992 8.5 18 8.5C26.008 8.5 32.5 14.992 32.5 23C32.5 31.008 26.008 37.5 18 37.5C9.992 37.5 3.5 31.008 3.5 23ZM32.135 6.365C31.9005 6.13055 31.5826 5.99884 31.251 5.99884C30.9194 5.99884 30.6015 6.13055 30.367 6.365C30.1325 6.59945 30.0008 6.91744 30.0008 7.249C30.0008 7.58056 30.1325 7.89855 30.367 8.133L32.867 10.633C32.9831 10.7491 33.1209 10.8412 33.2726 10.904C33.4243 10.9668 33.5868 10.9992 33.751 10.9992C33.9152 10.9992 34.0777 10.9668 34.2294 10.904C34.3811 10.8412 34.5189 10.7491 34.635 10.633C34.7511 10.5169 34.8432 10.3791 34.906 10.2274C34.9688 10.0757 35.0012 9.91317 35.0012 9.749C35.0012 9.58483 34.9688 9.42226 34.906 9.27058C34.8432 9.11891 34.7511 8.98109 34.635 8.865L32.135 6.365Z" fill="#001A49" stroke="#001A49"/>
</svg>
