<svg width="20" height="36" viewBox="0 0 20 36" fill="none" xmlns="http://www.w3.org/2000/svg">
<path fill-rule="evenodd" clip-rule="evenodd" d="M12 2C12 1.46957 11.7893 0.960859 11.4142 0.585786C11.0391 0.210714 10.5304 0 10 0C9.46957 0 8.96086 0.210714 8.58579 0.585786C8.21071 0.960859 8 1.46957 8 2V4C5.87827 4 3.84344 4.84285 2.34315 6.34315C0.842854 7.84344 0 9.87827 0 12C0 14.1217 0.842854 16.1566 2.34315 17.6569C3.84344 19.1571 5.87827 20 8 20V28C7.17267 28.0001 6.36564 27.7438 5.68996 27.2664C5.01429 26.789 4.50319 26.1139 4.227 25.334C4.04345 24.8431 3.67453 24.4438 3.19961 24.2222C2.7247 24.0005 2.18174 23.9741 1.68755 24.1486C1.19337 24.3232 0.787449 24.6847 0.55713 25.1555C0.326811 25.6263 0.290496 26.1687 0.456 26.666C1.00781 28.2259 2.02953 29.5764 3.38053 30.5316C4.73154 31.4868 6.34541 31.9998 8 32V34C8 34.5304 8.21071 35.0391 8.58579 35.4142C8.96086 35.7893 9.46957 36 10 36C10.5304 36 11.0391 35.7893 11.4142 35.4142C11.7893 35.0391 12 34.5304 12 34V32C14.1217 32 16.1566 31.1571 17.6569 29.6569C19.1571 28.1566 20 26.1217 20 24C20 21.8783 19.1571 19.8434 17.6569 18.3431C16.1566 16.8429 14.1217 16 12 16V8C12.8273 7.99988 13.6344 8.25617 14.31 8.7336C14.9857 9.21103 15.4968 9.88613 15.773 10.666C15.9566 11.1569 16.3255 11.5562 16.8004 11.7778C17.2753 11.9995 17.8183 12.0259 18.3124 11.8514C18.8066 11.6768 19.2126 11.3153 19.4429 10.8445C19.6732 10.3737 19.7095 9.83129 19.544 9.334C18.9922 7.77413 17.9705 6.42364 16.6195 5.46841C15.2685 4.51318 13.6546 4.00017 12 4V2ZM8 8C6.93913 8 5.92172 8.42143 5.17157 9.17157C4.42143 9.92172 4 10.9391 4 12C4 13.0609 4.42143 14.0783 5.17157 14.8284C5.92172 15.5786 6.93913 16 8 16V8ZM12 20V28C13.0609 28 14.0783 27.5786 14.8284 26.8284C15.5786 26.0783 16 25.0609 16 24C16 22.9391 15.5786 21.9217 14.8284 21.1716C14.0783 20.4214 13.0609 20 12 20Z" fill="#001A49"/>
</svg>
