<svg width="59" height="46" viewBox="0 0 59 46" fill="none" xmlns="http://www.w3.org/2000/svg">
<path d="M48.1536 20.4644C48.1536 20.4644 48.9316 24.2845 49.1067 25.0847H45.6867L47.3257 20.6178C47.3055 20.6492 47.6631 19.6826 47.8678 19.0875L48.1536 20.4644ZM59 4.92897V41.071C58.9995 42.3781 58.4813 43.6315 57.5593 44.5558C56.6372 45.4801 55.3868 45.9995 54.0829 46H4.91713C3.61317 45.9995 2.36277 45.4801 1.44073 44.5558C0.518699 43.6315 0.000488647 42.3781 0 41.071V4.92897C0.000488647 3.62187 0.518699 2.36846 1.44073 1.4442C2.36277 0.519948 3.61317 0.000489823 4.91713 0H54.0829C55.3868 0.000489823 56.6372 0.519948 57.5593 1.4442C58.4813 2.36846 58.9995 3.62187 59 4.92897ZM15.6216 30.7215L22.0948 14.7869H17.7419L13.7171 25.6705L13.2764 23.4639L11.842 16.1323C11.606 15.1159 10.8796 14.8276 9.97806 14.7869H3.35183L3.27993 15.1048C4.79743 15.478 6.25305 16.0693 7.60154 16.8605L11.2686 30.7215H15.6216ZM25.2918 30.7418L27.8729 14.7869H23.756L21.1859 30.7418H25.2918ZM39.6209 25.5264C39.6412 23.7097 38.535 22.3236 36.1696 21.1833C34.7259 20.4533 33.8447 19.9617 33.8447 19.2113C33.8649 18.5331 34.5932 17.8345 36.2101 17.8345C37.2633 17.8047 38.3097 18.0118 39.2725 18.4407L39.6412 18.6144L40.2054 15.1639C39.0284 14.7123 37.7783 14.4823 36.518 14.4857C32.4508 14.4857 29.5931 16.6628 29.5728 19.7621C29.5415 22.0519 31.6212 23.3253 33.1791 24.0941C34.7665 24.874 35.3104 25.3878 35.3104 26.0753C35.2901 27.1435 34.0198 27.6351 32.8417 27.6351C31.2027 27.6351 30.3214 27.3782 28.9792 26.7831L28.4371 26.5262L27.8637 30.1098C28.8261 30.5515 30.609 30.9414 32.4527 30.9618C36.7743 30.971 39.5914 28.8253 39.6228 25.5209L39.6209 25.5264ZM54.0829 30.7418L50.7642 14.7869H47.5783C46.5956 14.7869 45.8471 15.0752 45.4267 16.112L39.3112 30.7437H43.6328C43.6328 30.7437 44.339 28.7717 44.4938 28.3522H49.7797C49.9032 28.9177 50.272 30.7437 50.272 30.7437L54.0829 30.7418Z" fill="white"/>
</svg>
